<svg width="32" height="32" viewBox="0 0 32 32" fill="none" xmlns="http://www.w3.org/2000/svg">
  <defs>
    <linearGradient id="bgGrad" x1="0" y1="0" x2="32" y2="32" gradientUnits="userSpaceOnUse">
      <stop offset="0%" stop-color="#1a56db"/>
      <stop offset="100%" stop-color="#1239a0"/>
    </linearGradient>
    <linearGradient id="sparkGrad" x1="0" y1="0" x2="1" y2="1">
      <stop offset="0%" stop-color="#FF6B35"/>
      <stop offset="100%" stop-color="#ff9a00"/>
    </linearGradient>
  </defs>
  <rect width="32" height="32" rx="7" fill="url(#bgGrad)"/>
  <rect x="8" y="6" width="12" height="16" rx="1.5" fill="white" opacity="0.15"/>
  <rect x="9" y="8" width="7" height="1" rx="0.5" fill="white" opacity="0.9"/>
  <rect x="9" y="11" width="5.5" height="0.6" rx="0.3" fill="white" opacity="0.55"/>
  <rect x="9" y="12.5" width="6" height="0.6" rx="0.3" fill="white" opacity="0.55"/>
  <rect x="9" y="14" width="4.5" height="0.6" rx="0.3" fill="white" opacity="0.4"/>
  <rect x="9" y="15.5" width="5.5" height="0.6" rx="0.3" fill="white" opacity="0.4"/>
  <circle cx="21" cy="21" r="5" fill="#0a1628" opacity="0.85"/>
  <circle cx="21" cy="21" r="3.8" fill="none" stroke="url(#sparkGrad)" stroke-width="0.8" stroke-dasharray="21 24" stroke-dashoffset="6" stroke-linecap="round" transform="rotate(-90 21 21)"/>
  <text x="21" y="22.5" text-anchor="middle" font-family="system-ui, -apple-system, sans-serif" font-size="4.5" font-weight="800" fill="white">87</text>
  <g opacity="0.9">
    <path d="M23.5 6.5 L22.5 9 L24.5 9 L23.5 12.5 L26 8.5 L24 8.5 Z" fill="url(#sparkGrad)"/>
  </g>
</svg>
